<svg xmlns="http://www.w3.org/2000/svg" width="512" height="512" viewBox="0 0 512 512" fill="none">
  <defs>
    <linearGradient id="bg" x1="44" y1="44" x2="468" y2="468" gradientUnits="userSpaceOnUse">
      <stop offset="0" stop-color="#FFE3E3"/>
      <stop offset="1" stop-color="#F8D7DA"/>
    </linearGradient>
    <linearGradient id="light" x1="96" y1="72" x2="388" y2="352" gradientUnits="userSpaceOnUse">
      <stop offset="0" stop-color="#FFFFFF" stop-opacity="0.58"/>
      <stop offset="1" stop-color="#FFFFFF" stop-opacity="0.08"/>
    </linearGradient>
  </defs>
  <rect x="16" y="16" width="480" height="480" rx="38" fill="url(#bg)"/>
  <path d="M102 92 l178 -34 l126 82 l-24 214 l-194 62 l-110 -88 l24 -176z" fill="url(#light)"/>
  <path d="M42 40 h428 l10 10 v412 l-10 10 h-428 l-8 -10 v-412z" fill="#FFFFFF" opacity="0.05" stroke="#FFFFFF" stroke-opacity="0.4"/>
  
        <rect x="318" y="84" width="90" height="164" rx="18" fill="#FFFFFF" opacity="0.18"/>
        <path d="M92 156 h124 M92 188 h86" stroke="#FFFFFF" stroke-width="10" stroke-linecap="round" opacity="0.18"/>
        
  
    <path d="M74 390 l118 -44 h128 l118 44 v26 h-364z" fill="#FFF5F5" opacity="0.96"/>
    <path d="M98 388 h316" fill="none" stroke="#C92A2A" stroke-width="6" opacity="0.18" stroke-linecap="round"/>
    
  
    <g>
        <path d="M152 366 l28 -18 h68 l28 18 l-16 8 h-92z" fill="#000000" opacity="0.1"/>
        <path d="M172 216 l32 -20 h20 l32 20 v82 l-16 30 h-52 l-16 -30z" fill="#FFF9F9" stroke="#C92A2A" stroke-width="4" stroke-linejoin="miter"/>
        <path d="M188 328 v54 M240 328 v54" fill="none" stroke="#C92A2A" stroke-width="12" stroke-linecap="square"/>
        <path d="M166 248 l-44 36 M262 248 l44 34" fill="none" stroke="#C92A2A" stroke-width="12" stroke-linecap="square"/>
        <path d="M178 382 h26 M236 382 h26" fill="none" stroke="#C92A2A" stroke-width="12" stroke-linecap="square"/>
        <circle cx="214" cy="160" r="52" fill="#FFC9C9" stroke="#C92A2A" stroke-width="4"/>
        <path d="M186 110 h56 l-10 16 h-36z" fill="#FFF5F5" stroke="#C92A2A" stroke-width="4"/>
        <g transform="translate(214 154)"><g fill="#C92A2A" stroke="#C92A2A"><rect x="-24" y="-4" width="8" height="8"/><rect x="16" y="-4" width="8" height="8"/><path d="M-14 26 l10 -4 h8 l10 4" fill="none" stroke-width="4" stroke-linecap="square" stroke-linejoin="round"/></g></g>
        <path d="M168 112 l46 -18 l46 18" fill="none" stroke="#C92A2A" stroke-width="8" stroke-linecap="square" opacity="0.12"/>
        <text x="180" y="156" fill="#C92A2A" fill-opacity="1.0" font-family="Avenir Next,Segoe UI,Arial,sans-serif" font-size="22" font-weight="800" text-anchor="start">...</text>
    </g>
    
  
        <g>
            <rect x="324" y="80" width="86" height="152" rx="16" fill="#FFFFFF" opacity="0.94" stroke="#C92A2A" stroke-width="4"/>
            <circle cx="368" cy="164" r="22" fill="none" stroke="#C92A2A" stroke-width="8" stroke-dasharray="18 14"/>
            <g><rect x="338" y="104" width="58" height="28" rx="6" fill="#FFF5F5" stroke="#C92A2A" stroke-width="3"/><text x="367" y="124" fill="#C92A2A" fill-opacity="1.0" font-family="Avenir Next,Segoe UI,Arial,sans-serif" font-size="16" font-weight="800" text-anchor="middle">WAIT</text></g>
        </g>
        
  <rect x="46" y="404" width="188" height="54" rx="8" fill="#FFFFFF" opacity="0.8"/>
  <text x="68" y="438" fill="#C92A2A" fill-opacity="1.0" font-family="Avenir Next,Segoe UI,Arial,sans-serif" font-size="40" font-weight="900" text-anchor="start">429</text>
  <text x="68" y="462" fill="#344054" fill-opacity="1.0" font-family="Avenir Next,Segoe UI,Arial,sans-serif" font-size="16" font-weight="700" text-anchor="start">Busy Forever</text>
  <rect x="384" y="422" width="72" height="26" rx="6" fill="#FFF5F5" stroke="#C92A2A" stroke-width="3"/>
  <text x="420" y="440" fill="#C92A2A" fill-opacity="1.0" font-family="Avenir Next,Segoe UI,Arial,sans-serif" font-size="14" font-weight="900" text-anchor="middle">SBAI</text>
</svg>
