<svg xmlns="http://www.w3.org/2000/svg" width="512" height="512" viewBox="0 0 512 512" fill="none">
  <defs>
    <linearGradient id="bg" x1="44" y1="44" x2="468" y2="468" gradientUnits="userSpaceOnUse">
      <stop offset="0" stop-color="#FFE3E3"/>
      <stop offset="1" stop-color="#FFC9C9"/>
    </linearGradient>
    <linearGradient id="light" x1="96" y1="72" x2="388" y2="352" gradientUnits="userSpaceOnUse">
      <stop offset="0" stop-color="#FFFFFF" stop-opacity="0.58"/>
      <stop offset="1" stop-color="#FFFFFF" stop-opacity="0.08"/>
    </linearGradient>
  </defs>
  <rect x="16" y="16" width="480" height="480" rx="38" fill="url(#bg)"/>
  <path d="M102 92 l178 -34 l126 82 l-24 214 l-194 62 l-110 -88 l24 -176z" fill="url(#light)"/>
  <path d="M42 40 h428 l10 10 v412 l-10 10 h-428 l-8 -10 v-412z" fill="#FFFFFF" opacity="0.05" stroke="#FFFFFF" stroke-opacity="0.4"/>
  
        <path d="M66 124 l56 32 22 -54 34 40 44 -32 32 38 44 -22 54 38" fill="none" stroke="#FFFFFF" stroke-width="10" stroke-linecap="round" stroke-linejoin="round" opacity="0.2"/>
        
  
    <path d="M74 390 l118 -44 h128 l118 44 v26 h-364z" fill="#FFF5F5" opacity="0.96"/>
    <path d="M98 388 h316" fill="none" stroke="#E03131" stroke-width="6" opacity="0.18" stroke-linecap="round"/>
    
  
    <g>
        <path d="M152 366 l28 -18 h68 l28 18 l-16 8 h-92z" fill="#000000" opacity="0.1"/>
        <path d="M172 216 l32 -20 h20 l32 20 v82 l-16 30 h-52 l-16 -30z" fill="#FFF1F1" stroke="#E03131" stroke-width="4" stroke-linejoin="miter"/>
        <path d="M188 328 v54 M240 328 v54" fill="none" stroke="#E03131" stroke-width="12" stroke-linecap="square"/>
        <path d="M166 248 l-44 36 M262 248 l44 34" fill="none" stroke="#E03131" stroke-width="12" stroke-linecap="square"/>
        <path d="M178 382 h26 M236 382 h26" fill="none" stroke="#E03131" stroke-width="12" stroke-linecap="square"/>
        <circle cx="214" cy="160" r="52" fill="#FFA8A8" stroke="#E03131" stroke-width="4"/>
        
        <g transform="translate(214 154)"><g fill="#E03131" stroke="#E03131"><path d="M-26 -4 l10 10 M-16 -4 l-10 10 M14 -4 l10 10 M24 -4 l-10 10" stroke-width="4" stroke-linecap="square"/><circle cx="0" cy="24" r="7" fill="none" stroke-width="4"/></g></g>
        <path d="M168 112 l46 -18 l46 18" fill="none" stroke="#E03131" stroke-width="8" stroke-linecap="square" opacity="0.12"/>
        <path d="M192 144 l12 18 M224 136 l12 18" stroke="#E03131" stroke-width="6" stroke-linecap="square" opacity="0.65"/>
    </g>
    
  
        <g>
            <path d="M340 92 l18 22 22 -8 -6 24 18 16 -26 4 -6 24 -18 -18 -22 8 8 -24 -18 -16 26 -4z" fill="#FFFFFF" opacity="0.9"/>
            <g><rect x="340" y="190" width="94" height="44" rx="6" fill="#FFFFFF" stroke="#E03131" stroke-width="3"/><text x="387" y="218" fill="#E03131" fill-opacity="1.0" font-family="Avenir Next,Segoe UI,Arial,sans-serif" font-size="16" font-weight="800" text-anchor="middle">ERROR</text></g>
        </g>
        
  <rect x="46" y="404" width="188" height="54" rx="8" fill="#FFFFFF" opacity="0.8"/>
  <text x="68" y="438" fill="#E03131" fill-opacity="1.0" font-family="Avenir Next,Segoe UI,Arial,sans-serif" font-size="40" font-weight="900" text-anchor="start">BBQ</text>
  <text x="68" y="462" fill="#344054" fill-opacity="1.0" font-family="Avenir Next,Segoe UI,Arial,sans-serif" font-size="16" font-weight="700" text-anchor="start">Critical Failure</text>
  <rect x="384" y="422" width="72" height="26" rx="6" fill="#FFF5F5" stroke="#E03131" stroke-width="3"/>
  <text x="420" y="440" fill="#E03131" fill-opacity="1.0" font-family="Avenir Next,Segoe UI,Arial,sans-serif" font-size="14" font-weight="900" text-anchor="middle">SBAI</text>
</svg>
