<svg xmlns="http://www.w3.org/2000/svg" width="512" height="512" viewBox="0 0 512 512" fill="none">
  <defs>
    <linearGradient id="bg" x1="44" y1="44" x2="468" y2="468" gradientUnits="userSpaceOnUse">
      <stop offset="0" stop-color="#D3F9D8"/>
      <stop offset="1" stop-color="#96F2D7"/>
    </linearGradient>
    <linearGradient id="light" x1="96" y1="72" x2="388" y2="352" gradientUnits="userSpaceOnUse">
      <stop offset="0" stop-color="#FFFFFF" stop-opacity="0.58"/>
      <stop offset="1" stop-color="#FFFFFF" stop-opacity="0.08"/>
    </linearGradient>
  </defs>
  <rect x="16" y="16" width="480" height="480" rx="38" fill="url(#bg)"/>
  <path d="M102 92 l178 -34 l126 82 l-24 214 l-194 62 l-110 -88 l24 -176z" fill="url(#light)"/>
  <path d="M42 40 h428 l10 10 v412 l-10 10 h-428 l-8 -10 v-412z" fill="#FFFFFF" opacity="0.05" stroke="#FFFFFF" stroke-opacity="0.4"/>
  
        <path d="M72 120 q40 -34 82 0 q42 34 82 0 q42 -34 82 0 q40 34 84 0" fill="none" stroke="#FFFFFF" stroke-width="12" stroke-linecap="round" opacity="0.22"/>
        
  
    <path d="M74 390 l118 -44 h128 l118 44 v26 h-364z" fill="#E6FCF5" opacity="0.96"/>
    <path d="M98 388 h316" fill="none" stroke="#099268" stroke-width="6" opacity="0.18" stroke-linecap="round"/>
    
  
    <g>
        <path d="M152 366 l28 -18 h68 l28 18 l-16 8 h-92z" fill="#000000" opacity="0.1"/>
        <path d="M172 216 l32 -20 h20 l32 20 v82 l-16 30 h-52 l-16 -30z" fill="#F2FFFC" stroke="#099268" stroke-width="4" stroke-linejoin="miter"/>
        <path d="M188 328 v54 M240 328 v54" fill="none" stroke="#099268" stroke-width="12" stroke-linecap="square"/>
        <path d="M166 248 l-44 36 M262 248 l44 34" fill="none" stroke="#099268" stroke-width="12" stroke-linecap="square"/>
        <path d="M178 382 h26 M236 382 h26" fill="none" stroke="#099268" stroke-width="12" stroke-linecap="square"/>
        <circle cx="214" cy="160" r="52" fill="#96F2D7" stroke="#099268" stroke-width="4"/>
        
        <g transform="translate(214 154)"><g fill="#099268" stroke="#099268"><rect x="-24" y="-4" width="8" height="8"/><rect x="16" y="-4" width="8" height="8"/><path d="M-14 20 l8 6 h12 l8 -6" fill="none" stroke-width="4" stroke-linecap="square" stroke-linejoin="round"/></g></g>
        <path d="M168 112 l46 -18 l46 18" fill="none" stroke="#099268" stroke-width="8" stroke-linecap="square" opacity="0.12"/>
        <text x="292" y="164" fill="#099268" fill-opacity="1.0" font-family="Avenir Next,Segoe UI,Arial,sans-serif" font-size="22" font-weight="800" text-anchor="middle">👍</text>
    </g>
    
  
        <g>
            <path d="M302 116 h126 a16 16 0 0 1 16 16 v40 a16 16 0 0 1 -16 16 h-126z" fill="#E6FCF5" stroke="#099268" stroke-width="4"/>
            <text x="370" y="146" fill="#099268" fill-opacity="1.0" font-family="Avenir Next,Segoe UI,Arial,sans-serif" font-size="16" font-weight="800" text-anchor="middle">you got this</text>
            <text x="420" y="108" fill="#099268" fill-opacity="1.0" font-family="Avenir Next,Segoe UI,Arial,sans-serif" font-size="24" font-weight="800" text-anchor="middle">👍</text>
        </g>
        
  <rect x="46" y="404" width="188" height="54" rx="8" fill="#FFFFFF" opacity="0.8"/>
  <text x="68" y="438" fill="#099268" fill-opacity="1.0" font-family="Avenir Next,Segoe UI,Arial,sans-serif" font-size="40" font-weight="900" text-anchor="start">BRO</text>
  <text x="68" y="462" fill="#344054" fill-opacity="1.0" font-family="Avenir Next,Segoe UI,Arial,sans-serif" font-size="16" font-weight="700" text-anchor="start">Thumbs-Up Only</text>
  <rect x="384" y="422" width="72" height="26" rx="6" fill="#E6FCF5" stroke="#099268" stroke-width="3"/>
  <text x="420" y="440" fill="#099268" fill-opacity="1.0" font-family="Avenir Next,Segoe UI,Arial,sans-serif" font-size="14" font-weight="900" text-anchor="middle">SBAI</text>
</svg>
