<svg xmlns="http://www.w3.org/2000/svg" width="512" height="512" viewBox="0 0 512 512" fill="none">
  <defs>
    <linearGradient id="bg" x1="44" y1="44" x2="468" y2="468" gradientUnits="userSpaceOnUse">
      <stop offset="0" stop-color="#FFE8CC"/>
      <stop offset="1" stop-color="#FFD43B"/>
    </linearGradient>
    <linearGradient id="light" x1="96" y1="72" x2="388" y2="352" gradientUnits="userSpaceOnUse">
      <stop offset="0" stop-color="#FFFFFF" stop-opacity="0.58"/>
      <stop offset="1" stop-color="#FFFFFF" stop-opacity="0.08"/>
    </linearGradient>
  </defs>
  <rect x="16" y="16" width="480" height="480" rx="38" fill="url(#bg)"/>
  <path d="M102 92 l178 -34 l126 82 l-24 214 l-194 62 l-110 -88 l24 -176z" fill="url(#light)"/>
  <path d="M42 40 h428 l10 10 v412 l-10 10 h-428 l-8 -10 v-412z" fill="#FFFFFF" opacity="0.05" stroke="#FFFFFF" stroke-opacity="0.4"/>
  
        <rect x="76" y="96" width="84" height="54" rx="12" fill="#FFFFFF" opacity="0.16"/>
        <rect x="352" y="92" width="84" height="62" rx="12" fill="#FFFFFF" opacity="0.16"/>
        <path d="M94 168 h46 M372 172 h44" stroke="#FFFFFF" stroke-width="8" stroke-linecap="round" opacity="0.18"/>
        
  
    <path d="M74 390 l118 -44 h128 l118 44 v26 h-364z" fill="#FFF4E6" opacity="0.96"/>
    <path d="M98 388 h316" fill="none" stroke="#E8590C" stroke-width="6" opacity="0.18" stroke-linecap="round"/>
    
  
    <g>
        <path d="M152 366 l28 -18 h68 l28 18 l-16 8 h-92z" fill="#000000" opacity="0.1"/>
        <path d="M172 216 l32 -20 h20 l32 20 v82 l-16 30 h-52 l-16 -30z" fill="#FFF9F3" stroke="#E8590C" stroke-width="4" stroke-linejoin="miter"/>
        <path d="M188 328 v54 M240 328 v54" fill="none" stroke="#E8590C" stroke-width="12" stroke-linecap="square"/>
        <path d="M166 248 l-44 36 M262 248 l44 34" fill="none" stroke="#E8590C" stroke-width="12" stroke-linecap="square"/>
        <path d="M178 382 h26 M236 382 h26" fill="none" stroke="#E8590C" stroke-width="12" stroke-linecap="square"/>
        <circle cx="214" cy="160" r="52" fill="#FFC078" stroke="#E8590C" stroke-width="4"/>
        <path d="M182 112 h64 l-6 16 h-52z" fill="#FFF4E6" stroke="#E8590C" stroke-width="4"/>
        <g transform="translate(214 154)"><g fill="#E8590C" stroke="#E8590C"><path d="M-28 -2 l14 -4 M14 -6 l14 4" stroke-width="4" stroke-linecap="square"/><path d="M-12 22 h24" fill="none" stroke-width="4" stroke-linecap="square"/></g></g>
        <path d="M168 112 l46 -18 l46 18" fill="none" stroke="#E8590C" stroke-width="8" stroke-linecap="square" opacity="0.12"/>
        <path d="M184 152 h46 M184 170 h46" stroke="#E8590C" stroke-width="6" stroke-linecap="square"/>
    </g>
    
  
        <g>
            <rect x="302" y="180" width="136" height="54" rx="10" fill="#FFFFFF" opacity="0.94" stroke="#E8590C" stroke-width="4"/>
            <rect x="316" y="136" width="34" height="38" rx="8" fill="#FFF4E6" stroke="#E8590C" stroke-width="3"/>
            <rect x="356" y="122" width="40" height="52" rx="8" fill="#FFFFFF" stroke="#E8590C" stroke-width="3"/>
            <rect x="406" y="142" width="22" height="30" rx="8" fill="#FFF4E6" stroke="#E8590C" stroke-width="3"/>
            <text x="370" y="212" fill="#E8590C" fill-opacity="1.0" font-family="Avenir Next,Segoe UI,Arial,sans-serif" font-size="15" font-weight="800" text-anchor="middle">doing all of it</text>
        </g>
        
  <rect x="46" y="404" width="188" height="54" rx="8" fill="#FFFFFF" opacity="0.8"/>
  <text x="68" y="438" fill="#E8590C" fill-opacity="1.0" font-family="Avenir Next,Segoe UI,Arial,sans-serif" font-size="40" font-weight="900" text-anchor="start">KFC</text>
  <text x="68" y="462" fill="#344054" fill-opacity="1.0" font-family="Avenir Next,Segoe UI,Arial,sans-serif" font-size="16" font-weight="700" text-anchor="start">Can-Do Storm</text>
  <rect x="384" y="422" width="72" height="26" rx="6" fill="#FFF4E6" stroke="#E8590C" stroke-width="3"/>
  <text x="420" y="440" fill="#E8590C" fill-opacity="1.0" font-family="Avenir Next,Segoe UI,Arial,sans-serif" font-size="14" font-weight="900" text-anchor="middle">SBAI</text>
</svg>
