<svg xmlns="http://www.w3.org/2000/svg" width="512" height="512" viewBox="0 0 512 512" fill="none">
  <defs>
    <linearGradient id="bg" x1="44" y1="44" x2="468" y2="468" gradientUnits="userSpaceOnUse">
      <stop offset="0" stop-color="#D8F5A2"/>
      <stop offset="1" stop-color="#B2F2BB"/>
    </linearGradient>
    <linearGradient id="light" x1="96" y1="72" x2="388" y2="352" gradientUnits="userSpaceOnUse">
      <stop offset="0" stop-color="#FFFFFF" stop-opacity="0.58"/>
      <stop offset="1" stop-color="#FFFFFF" stop-opacity="0.08"/>
    </linearGradient>
  </defs>
  <rect x="16" y="16" width="480" height="480" rx="38" fill="url(#bg)"/>
  <path d="M102 92 l178 -34 l126 82 l-24 214 l-194 62 l-110 -88 l24 -176z" fill="url(#light)"/>
  <path d="M42 40 h428 l10 10 v412 l-10 10 h-428 l-8 -10 v-412z" fill="#FFFFFF" opacity="0.05" stroke="#FFFFFF" stroke-opacity="0.4"/>
  
        <path d="M68 146 h376" stroke="#FFFFFF" stroke-width="10" stroke-linecap="round" opacity="0.2"/>
        
  
    <path d="M74 390 l118 -44 h128 l118 44 v26 h-364z" fill="#EBFBEE" opacity="0.96"/>
    <path d="M98 388 h316" fill="none" stroke="#2F9E44" stroke-width="6" opacity="0.18" stroke-linecap="round"/>
    
  
    <g>
        <path d="M152 366 l28 -18 h68 l28 18 l-16 8 h-92z" fill="#000000" opacity="0.1"/>
        <path d="M172 216 l32 -20 h20 l32 20 v82 l-16 30 h-52 l-16 -30z" fill="#F3FFF2" stroke="#2F9E44" stroke-width="4" stroke-linejoin="miter"/>
        <path d="M188 328 v54 M240 328 v54" fill="none" stroke="#2F9E44" stroke-width="12" stroke-linecap="square"/>
        <path d="M166 248 l-44 36 M262 248 l44 34" fill="none" stroke="#2F9E44" stroke-width="12" stroke-linecap="square"/>
        <path d="M178 382 h26 M236 382 h26" fill="none" stroke="#2F9E44" stroke-width="12" stroke-linecap="square"/>
        <circle cx="214" cy="160" r="52" fill="#C0EB75" stroke="#2F9E44" stroke-width="4"/>
        <path d="M188 110 h52 v18 h-52z" fill="#EBFBEE" stroke="#2F9E44" stroke-width="4"/>
        <g transform="translate(214 154)"><g fill="#2F9E44" stroke="#2F9E44"><rect x="-23" y="-3" width="6" height="6"/><rect x="17" y="-3" width="6" height="6"/><path d="M-10 22 h20" fill="none" stroke-width="3" stroke-linecap="square"/></g></g>
        <path d="M168 112 l46 -18 l46 18" fill="none" stroke="#2F9E44" stroke-width="8" stroke-linecap="square" opacity="0.12"/>
        
    </g>
    
  
        <g>
            <circle cx="394" cy="118" r="38" fill="#FFFFFF" opacity="0.96" stroke="#2F9E44" stroke-width="4"/>
            <text x="394" y="126" fill="#2F9E44" fill-opacity="1.0" font-family="Avenir Next,Segoe UI,Arial,sans-serif" font-size="24" font-weight="900" text-anchor="middle">OK</text>
        </g>
        
  <rect x="46" y="404" width="188" height="54" rx="8" fill="#FFFFFF" opacity="0.8"/>
  <text x="68" y="438" fill="#2F9E44" fill-opacity="1.0" font-family="Avenir Next,Segoe UI,Arial,sans-serif" font-size="40" font-weight="900" text-anchor="start">OJBK</text>
  <text x="68" y="462" fill="#344054" fill-opacity="1.0" font-family="Avenir Next,Segoe UI,Arial,sans-serif" font-size="16" font-weight="700" text-anchor="start">Absolute Compliance</text>
  <rect x="384" y="422" width="72" height="26" rx="6" fill="#EBFBEE" stroke="#2F9E44" stroke-width="3"/>
  <text x="420" y="440" fill="#2F9E44" fill-opacity="1.0" font-family="Avenir Next,Segoe UI,Arial,sans-serif" font-size="14" font-weight="900" text-anchor="middle">SBAI</text>
</svg>
