<svg xmlns="http://www.w3.org/2000/svg" width="512" height="512" viewBox="0 0 512 512" fill="none">
  <defs>
    <linearGradient id="bg" x1="44" y1="44" x2="468" y2="468" gradientUnits="userSpaceOnUse">
      <stop offset="0" stop-color="#E5DBFF"/>
      <stop offset="1" stop-color="#D0BFFF"/>
    </linearGradient>
    <linearGradient id="light" x1="110" y1="62" x2="366" y2="352" gradientUnits="userSpaceOnUse">
      <stop offset="0" stop-color="#FFFFFF" stop-opacity="0.72"/>
      <stop offset="1" stop-color="#FFFFFF" stop-opacity="0.1"/>
    </linearGradient>
  </defs>
  <rect x="16" y="16" width="480" height="480" rx="38" fill="url(#bg)"/>
  <path d="M92 88 q114 -72 240 -18 q108 46 94 188 q-14 152 -178 154 q-144 2 -190 -112 q-48 -118 34 -212z" fill="url(#light)"/>
  <rect x="34" y="34" width="444" height="444" rx="30" fill="#FFFFFF" opacity="0.05" stroke="#FFFFFF" stroke-opacity="0.4"/>
  
        <rect x="54" y="86" width="404" height="142" rx="26" fill="#FFFFFF" opacity="0.2"/>
        <path d="M84 132 h344 M84 172 h218" stroke="#FFFFFF" stroke-width="12" stroke-linecap="round" opacity="0.22"/>
        
  
    <ellipse cx="256" cy="384" rx="182" ry="52" fill="#F3F0FF" opacity="0.96"/>
    <path d="M64 388 q96 -40 192 0 q98 40 192 0" fill="none" stroke="#7048E8" stroke-width="6" opacity="0.18" stroke-linecap="round"/>
    
  
    <g>
        <ellipse cx="214" cy="362" rx="72" ry="18" fill="#000000" opacity="0.1"/>
        <path d="M168 210 q46 -24 92 0 v84 q0 40 -46 40 q-46 0 -46 -40z" fill="#F8F0FC" stroke="#7048E8" stroke-width="4"/>
        <path d="M180 334 v50 M248 334 v50" fill="none" stroke="#7048E8" stroke-width="14" stroke-linecap="round"/>
        <path d="M168 246 q-46 18 -56 62" fill="none" stroke="#7048E8" stroke-width="14" stroke-linecap="round"/>
        <path d="M260 246 q42 16 52 56" fill="none" stroke="#7048E8" stroke-width="14" stroke-linecap="round"/>
        <path d="M170 384 h28 M232 384 h28" fill="none" stroke="#7048E8" stroke-width="14" stroke-linecap="round"/>
        <circle cx="214" cy="160" r="56" fill="#D0BFFF" stroke="#7048E8" stroke-width="4"/>
        <g transform="translate(214 154)"><g fill="#7048E8" stroke="#7048E8"><path d="M-26 -2 l12 -4 M14 -6 l12 4" stroke-width="4" stroke-linecap="round"/><path d="M-12 22 h24" fill="none" stroke-width="4" stroke-linecap="round"/></g></g>
        <path d="M170 112 q44 -26 88 0" fill="none" stroke="#7048E8" stroke-width="8" stroke-linecap="round" opacity="0.12"/>
        <path d="M188 188 h38" stroke="#7048E8" stroke-width="8" stroke-linecap="round"/>
    </g>
    
  
        <g>
            <rect x="306" y="86" width="132" height="110" rx="18" fill="#F3F0FF" stroke="#7048E8" stroke-width="4"/>
            <text x="372" y="118" fill="#7048E8" fill-opacity="1.0" font-family="Avenir Next,Segoe UI,Arial,sans-serif" font-size="20" font-weight="900" text-anchor="middle">Advice</text>
            <path d="M326 142 h88 M326 164 h72 M326 184 h60" stroke="#7048E8" stroke-width="7" stroke-linecap="round"/>
            <g><rect x="344" y="206" width="82" height="32" rx="12" fill="#F3F0FF" stroke="#7048E8" stroke-width="3"/><text x="385" y="228" fill="#7048E8" fill-opacity="1.0" font-family="Avenir Next,Segoe UI,Arial,sans-serif" font-size="16" font-weight="800" text-anchor="middle">mentor</text></g>
        </g>
        
  <rect x="46" y="404" width="188" height="54" rx="20" fill="#FFFFFF" opacity="0.8"/>
  <text x="68" y="438" fill="#7048E8" fill-opacity="1.0" font-family="Avenir Next,Segoe UI,Arial,sans-serif" font-size="40" font-weight="900" text-anchor="start">PUA</text>
  <text x="68" y="462" fill="#344054" fill-opacity="1.0" font-family="Avenir Next,Segoe UI,Arial,sans-serif" font-size="16" font-weight="700" text-anchor="start">Advice Principal</text>
  <rect x="384" y="422" width="72" height="26" rx="13" fill="#F3F0FF" stroke="#7048E8" stroke-width="3"/>
  <text x="420" y="440" fill="#7048E8" fill-opacity="1.0" font-family="Avenir Next,Segoe UI,Arial,sans-serif" font-size="14" font-weight="900" text-anchor="middle">SBAI</text>
</svg>
