<svg xmlns="http://www.w3.org/2000/svg" width="512" height="512" viewBox="0 0 512 512" fill="none">
  <defs>
    <linearGradient id="bg" x1="44" y1="44" x2="468" y2="468" gradientUnits="userSpaceOnUse">
      <stop offset="0" stop-color="#FFE8CC"/>
      <stop offset="1" stop-color="#FFD8A8"/>
    </linearGradient>
    <linearGradient id="light" x1="96" y1="72" x2="388" y2="352" gradientUnits="userSpaceOnUse">
      <stop offset="0" stop-color="#FFFFFF" stop-opacity="0.58"/>
      <stop offset="1" stop-color="#FFFFFF" stop-opacity="0.08"/>
    </linearGradient>
  </defs>
  <rect x="16" y="16" width="480" height="480" rx="38" fill="url(#bg)"/>
  <path d="M102 92 l178 -34 l126 82 l-24 214 l-194 62 l-110 -88 l24 -176z" fill="url(#light)"/>
  <path d="M42 40 h428 l10 10 v412 l-10 10 h-428 l-8 -10 v-412z" fill="#FFFFFF" opacity="0.05" stroke="#FFFFFF" stroke-opacity="0.4"/>
  
        <path d="M382 74 l18 22 26 -4 -12 22 14 22 -26 -2 -18 22 -4 -28 -24 -10 24 -10z" fill="#FFFFFF" opacity="0.26"/>
        
  
    <path d="M74 390 l118 -44 h128 l118 44 v26 h-364z" fill="#FFF4E6" opacity="0.96"/>
    <path d="M98 388 h316" fill="none" stroke="#F76707" stroke-width="6" opacity="0.18" stroke-linecap="round"/>
    
  
    <g>
        <path d="M152 366 l28 -18 h68 l28 18 l-16 8 h-92z" fill="#000000" opacity="0.1"/>
        <path d="M172 216 l32 -20 h20 l32 20 v82 l-16 30 h-52 l-16 -30z" fill="#FFF9F1" stroke="#F76707" stroke-width="4" stroke-linejoin="miter"/>
        <path d="M188 328 v54 M240 328 v54" fill="none" stroke="#F76707" stroke-width="12" stroke-linecap="square"/>
        <path d="M166 248 l-44 36 M262 248 l44 34" fill="none" stroke="#F76707" stroke-width="12" stroke-linecap="square"/>
        <path d="M178 382 h26 M236 382 h26" fill="none" stroke="#F76707" stroke-width="12" stroke-linecap="square"/>
        <circle cx="214" cy="160" r="52" fill="#FFC078" stroke="#F76707" stroke-width="4"/>
        <path d="M188 108 h52 l12 10 h-76z" fill="#FFF4E6" stroke="#F76707" stroke-width="4"/>
        <g transform="translate(214 154)"><g fill="#F76707" stroke="#F76707"><path d="M-28 -2 l14 -4 M14 -6 l14 4" stroke-width="4" stroke-linecap="square"/><path d="M-12 22 h24" fill="none" stroke-width="4" stroke-linecap="square"/></g></g>
        <path d="M168 112 l46 -18 l46 18" fill="none" stroke="#F76707" stroke-width="8" stroke-linecap="square" opacity="0.12"/>
        <path d="M182 198 h46" stroke="#F76707" stroke-width="8" stroke-linecap="square"/>
    </g>
    
  
        <g>
            <rect x="322" y="80" width="104" height="102" rx="18" fill="#FFF4E6" stroke="#F76707" stroke-width="4"/>
            <path d="M342 104 h62 M342 126 h62 M342 148 h62" stroke="#F76707" stroke-width="8" stroke-linecap="round"/>
            <path d="M424 222 l-18 -48 -16 6 8 24 -16 6 6 14 16 -6 6 16z" fill="#F76707"/>
        </g>
        
  <rect x="46" y="404" width="188" height="54" rx="8" fill="#FFFFFF" opacity="0.8"/>
  <text x="68" y="438" fill="#F76707" fill-opacity="1.0" font-family="Avenir Next,Segoe UI,Arial,sans-serif" font-size="40" font-weight="900" text-anchor="start">U1S1</text>
  <text x="68" y="462" fill="#344054" fill-opacity="1.0" font-family="Avenir Next,Segoe UI,Arial,sans-serif" font-size="16" font-weight="700" text-anchor="start">Truth Hammer</text>
  <rect x="384" y="422" width="72" height="26" rx="6" fill="#FFF4E6" stroke="#F76707" stroke-width="3"/>
  <text x="420" y="440" fill="#F76707" fill-opacity="1.0" font-family="Avenir Next,Segoe UI,Arial,sans-serif" font-size="14" font-weight="900" text-anchor="middle">SBAI</text>
</svg>
