<svg xmlns="http://www.w3.org/2000/svg" width="512" height="512" viewBox="0 0 512 512" fill="none">
  <defs>
    <linearGradient id="bg" x1="44" y1="44" x2="468" y2="468" gradientUnits="userSpaceOnUse">
      <stop offset="0" stop-color="#FFF3BF"/>
      <stop offset="1" stop-color="#FFD8A8"/>
    </linearGradient>
    <linearGradient id="light" x1="96" y1="72" x2="388" y2="352" gradientUnits="userSpaceOnUse">
      <stop offset="0" stop-color="#FFFFFF" stop-opacity="0.58"/>
      <stop offset="1" stop-color="#FFFFFF" stop-opacity="0.08"/>
    </linearGradient>
  </defs>
  <rect x="16" y="16" width="480" height="480" rx="38" fill="url(#bg)"/>
  <path d="M102 92 l178 -34 l126 82 l-24 214 l-194 62 l-110 -88 l24 -176z" fill="url(#light)"/>
  <path d="M42 40 h428 l10 10 v412 l-10 10 h-428 l-8 -10 v-412z" fill="#FFFFFF" opacity="0.05" stroke="#FFFFFF" stroke-opacity="0.4"/>
  
        <path d="M48 330 q94 -52 192 -18 q102 36 224 -8 v84 h-416z" fill="#FFFFFF" opacity="0.28"/>
        <path d="M56 142 q42 -20 84 0 q42 20 84 0 q42 -20 84 0 q42 20 84 0 q42 -20 70 0" fill="none" stroke="#FFFFFF" stroke-width="12" opacity="0.22"/>
        
  
    <path d="M74 390 l118 -44 h128 l118 44 v26 h-364z" fill="#FFE8CC" opacity="0.96"/>
    <path d="M98 388 h316" fill="none" stroke="#FF922B" stroke-width="6" opacity="0.18" stroke-linecap="round"/>
    
  
    <g>
        <path d="M152 366 l28 -18 h68 l28 18 l-16 8 h-92z" fill="#000000" opacity="0.1"/>
        <path d="M172 216 l32 -20 h20 l32 20 v82 l-16 30 h-52 l-16 -30z" fill="#FFF8E1" stroke="#FF922B" stroke-width="4" stroke-linejoin="miter"/>
        <path d="M188 328 v54 M240 328 v54" fill="none" stroke="#FF922B" stroke-width="12" stroke-linecap="square"/>
        <path d="M166 248 l-44 36 M262 248 l44 34" fill="none" stroke="#FF922B" stroke-width="12" stroke-linecap="square"/>
        <path d="M178 382 h26 M236 382 h26" fill="none" stroke="#FF922B" stroke-width="12" stroke-linecap="square"/>
        <circle cx="214" cy="160" r="52" fill="#FFD166" stroke="#FF922B" stroke-width="4"/>
        
        <g transform="translate(214 154)"><g fill="#FF922B" stroke="#FF922B"><rect x="-24" y="-4" width="8" height="8"/><rect x="16" y="-4" width="8" height="8"/><path d="M-14 20 l8 6 h12 l8 -6" fill="none" stroke-width="4" stroke-linecap="square" stroke-linejoin="round"/></g></g>
        <path d="M168 112 l46 -18 l46 18" fill="none" stroke="#FF922B" stroke-width="8" stroke-linecap="square" opacity="0.12"/>
        
    </g>
    
  
        <g>
            <g><path d="M304 92 l8 -8 h114 l8 8 v44 l-8 8 h-114 l-8 -8 z" fill="#FFFFFF" stroke="#FF922B" stroke-width="3" stroke-linejoin="round"/><path d="M338 136 l10 16 14 -16" fill="#FFFFFF" stroke="#FF922B" stroke-width="3" stroke-linejoin="round"/><text x="369" y="116" fill="#FF922B" fill-opacity="1.0" font-family="Avenir Next,Segoe UI,Arial,sans-serif" font-size="18" font-weight="700" text-anchor="middle">more detail</text></g>
            <g><path d="M336 158 l8 -8 h90 l8 8 v40 l-8 8 h-90 l-8 -8 z" fill="#FFE8CC" stroke="#FF922B" stroke-width="3" stroke-linejoin="round"/><path d="M370 198 l10 16 14 -16" fill="#FFE8CC" stroke="#FF922B" stroke-width="3" stroke-linejoin="round"/><text x="389" y="180" fill="#FF922B" fill-opacity="1.0" font-family="Avenir Next,Segoe UI,Arial,sans-serif" font-size="18" font-weight="700" text-anchor="middle">step 1...</text></g>
            <path d="M360 218 q24 20 18 50" fill="none" stroke="#FF922B" stroke-width="8" stroke-linecap="round"/>
            <path d="M396 224 q18 18 10 42" fill="none" stroke="#FF922B" stroke-width="8" stroke-linecap="round"/>
        </g>
        
  <rect x="46" y="404" width="188" height="54" rx="8" fill="#FFFFFF" opacity="0.8"/>
  <text x="68" y="438" fill="#FF922B" fill-opacity="1.0" font-family="Avenir Next,Segoe UI,Arial,sans-serif" font-size="40" font-weight="900" text-anchor="start">YYDS</text>
  <text x="68" y="462" fill="#344054" fill-opacity="1.0" font-family="Avenir Next,Segoe UI,Arial,sans-serif" font-size="16" font-weight="700" text-anchor="start">Output Tsunami</text>
  <rect x="384" y="422" width="72" height="26" rx="6" fill="#FFE8CC" stroke="#FF922B" stroke-width="3"/>
  <text x="420" y="440" fill="#FF922B" fill-opacity="1.0" font-family="Avenir Next,Segoe UI,Arial,sans-serif" font-size="14" font-weight="900" text-anchor="middle">SBAI</text>
</svg>
